<svg viewBox="0 0 261.05 456.5" xmlns="http://www.w3.org/2000/svg"><path d="m205.79 17.37a12.58 12.58 0 0 0 -12.54-12.54h-125.45a12.58 12.58 0 0 0 -12.55 12.54l-38.68 246.72a12.58 12.58 0 0 0 12.55 12.55h202.81a12.58 12.58 0 0 0 12.55-12.55z" fill="#a7dae6"/><path d="m55.25 436.78a12.58 12.58 0 0 0 12.55 12.55h125.45a12.58 12.58 0 0 0 12.55-12.55l38.68-246.72a12.58 12.58 0 0 0 -12.55-12.55h-202.81a12.58 12.58 0 0 0 -12.55 12.55z" fill="#a7dae6"/><path d="m218.75 101.16h-176.45l8.85-44.64h158.76z" fill="#8ab4c2"/><path d="m42.3 350.2h176.45l-8.85 48.17h-158.77z" fill="#8ab4c2"/><path d="m231.93 283.81h-202.81a18.57 18.57 0 0 1 -18.54-18.54v-.47l.07-.46 38.61-246.34a18.57 18.57 0 0 1 18.54-18h125.45a18.57 18.57 0 0 1 18.54 18l38.69 246.8v.47a18.57 18.57 0 0 1 -18.55 18.54zm-209.35-18.15a6.55 6.55 0 0 0 6.53 6.15h202.82a6.55 6.55 0 0 0 6.53-6.15l-38.67-246.66v-.47a6.55 6.55 0 0 0 -6.54-6.53h-125.45a6.55 6.55 0 0 0 -6.54 6.55v.45l-.07.46z" fill="#3b525e"/><path d="m193.25 456.5h-125.45a18.57 18.57 0 0 1 -18.54-18l-38.69-246.8v-.47a18.57 18.57 0 0 1 18.54-18.54h202.82a18.57 18.57 0 0 1 18.54 18.54v.47l-.07.46-38.62 246.3a18.57 18.57 0 0 1 -18.53 18.04zm-170.67-265.66 38.67 246.65v.51a6.55 6.55 0 0 0 6.54 6.54h125.46a6.55 6.55 0 0 0 6.54-6.54v-.47l.07-.46 38.6-246.18a6.55 6.55 0 0 0 -6.53-6.15h-202.81a6.55 6.55 0 0 0 -6.54 6.1z" fill="#3b525e"/><rect fill="#d4f3f8" height="305.44" rx="38.91" width="249.05" x="6" y="77.66"/><path d="m205.36 386.75h-149.67a55.75 55.75 0 0 1 -55.69-55.69v-206.06a55.75 55.75 0 0 1 55.69-55.69h149.67a55.75 55.75 0 0 1 55.64 55.69v206.06a55.75 55.75 0 0 1 -55.64 55.69zm-149.67-305.44a43.74 43.74 0 0 0 -43.69 43.69v206.06a43.74 43.74 0 0 0 43.69 43.69h149.67a43.74 43.74 0 0 0 43.64-43.69v-206.06a43.74 43.74 0 0 0 -43.69-43.69z" fill="#3b525e"/><path d="m43.28 275.4h43.39a5.92 5.92 0 0 0 5.18-3l17.15-36.13-11-1.43 23.5 65.09c2 5.43 9.81 6 11.57 0l28.52-96.66 4-13.63-11 1.43 29.83 69.61c.8 1.87 3.27 3 5.18 3h32.54c7.72 0 7.73-12 0-12h-32.41l5.18 3-29.83-69.68c-2.15-5-9.64-3.07-11 1.43l-28.52 96.66-4 13.63h11.57l-23.5-65.09c-1.58-4.38-8.57-6.49-11-1.43l-17.14 36.18 5.18-3h-43.39c-7.72 0-7.73 12 0 12z" fill="#354a57"/><g fill="#fff"><path d="m155.38 102.45h75c3.86 0 3.87-6 0-6h-75c-3.86 0-3.87 6 0 6z"/><path d="m108.37 102.45h28.93c3.86 0 3.87-6 0-6h-28.93c-3.86 0-3.87 6 0 6z"/></g></svg>