<svg viewBox="0 0 289.35 397.71" xmlns="http://www.w3.org/2000/svg"><path d="m170.47 6h-51.6a78.92 78.92 0 0 0 -78.69 78.69v113.52a78.92 78.92 0 0 0 78.69 78.69h51.6a78.92 78.92 0 0 0 78.69-78.69v-113.52a78.92 78.92 0 0 0 -78.69-78.69zm44.78 219.47a50.29 50.29 0 0 1 -50.14 50.14h-40.87a50.29 50.29 0 0 1 -50.14-50.14v-130.63a50.29 50.29 0 0 1 50.14-50.14h40.87a50.29 50.29 0 0 1 50.14 50.14z" fill="#fff"/><path d="m246.59 86v113.5a78.92 78.92 0 0 1 -78.69 78.69h-51.6a78.92 78.92 0 0 1 -78.69-78.69v-113.5a78.92 78.92 0 0 1 78.69-78.71h51.6a78 78 0 0 1 40.42 11.25l-108.91 12.46c-11.09 1.3-23.75 3.53-29.51 13.09-5.47 9.06-2.26 20.63 1.1 30.67.84 2.5 1.66 5 2.5 7.51a49.74 49.74 0 0 0 -2 13.87v130.62a50.29 50.29 0 0 0 50.14 50.14h40.87a50.29 50.29 0 0 0 50.14-50.14v-130.63a49.7 49.7 0 0 0 -7.8-26.78l30-24.52a78 78 0 0 1 11.74 41.17z" fill="#cbd0d4" opacity=".3"/><path d="m170.48 282.9h-51.6a84.79 84.79 0 0 1 -84.69-84.69v-113.52a84.79 84.79 0 0 1 84.69-84.69h51.6a84.79 84.79 0 0 1 84.69 84.69v113.52a84.79 84.79 0 0 1 -84.69 84.69zm-46.24-232.2a44.19 44.19 0 0 0 -44.14 44.14v130.63a44.19 44.19 0 0 0 44.14 44.14h40.87a44.19 44.19 0 0 0 44.14-44.14v-130.63a44.19 44.19 0 0 0 -44.14-44.14zm0-12h40.87a56.21 56.21 0 0 1 56.14 56.14v130.63a55.85 55.85 0 0 1 -11.31 33.76 72.69 72.69 0 0 0 33.23-61v-113.54a72.77 72.77 0 0 0 -72.69-72.69h-51.6a72.77 72.77 0 0 0 -72.69 72.69v113.52a72.69 72.69 0 0 0 33.23 61 55.85 55.85 0 0 1 -11.32-33.74v-130.63a56.21 56.21 0 0 1 56.14-56.14z" fill="#314e5d"/><circle cx="144.67" cy="254.32" fill="#fff" r="138.68"/><path d="m245.36 352.83a138.67 138.67 0 1 1 -117.77-235.71 138.68 138.68 0 0 0 117.77 235.71z" fill="#cbd0d4"/><path d="m144.67 397.71c-79.77 0-144.67-64.9-144.67-144.71s64.9-144.64 144.67-144.64 144.68 64.9 144.68 144.64-64.9 144.71-144.68 144.71zm0-277.35c-73.15 0-132.67 59.52-132.67 132.64s59.52 132.71 132.67 132.71 132.68-59.52 132.68-132.71-59.52-132.64-132.68-132.64z" fill="#314d5c"/><text fill="#314d5c" font-family="Dosis-ExtraBold, Dosis" font-size="111.95" font-weight="700" letter-spacing="-.01em" transform="translate(79.49 304.55)">K<tspan letter-spacing="0em" x="61.91" y="0">G</tspan></text><g fill="#cbd0d4"><path d="m221.7 158.53a169 169 0 0 0 -30.29-22.62c-3.34-2-6.36 3.22-3 5.18a161.88 161.88 0 0 1 29.07 21.69c2.81 2.65 7.06-1.59 4.24-4.24z"/><path d="m268.9 257.5c-.78-26.23-12-53.2-26.5-74.6-2.15-3.18-7.35-.18-5.18 3 13.87 20.53 24.93 46.38 25.68 71.57.11 3.85 6.11 3.87 6 0z"/></g></svg>