<?xml version="1.0" encoding="UTF-8"?>
<svg version="1.1" xmlns="http://www.w3.org/2000/svg" width="500" height="500">
<path d="M0 0 C2.03490065 -0.00571117 4.06979809 -0.0126783 6.10469055 -0.02079773 C11.60285941 -0.03866435 17.10086809 -0.03757267 22.5990572 -0.03185534 C27.20347597 -0.02875323 31.80786444 -0.03486748 36.41227889 -0.04089409 C47.28383033 -0.0549172 58.15530315 -0.05339724 69.02685547 -0.04199219 C80.20812296 -0.03052074 91.38915032 -0.04457547 102.57038617 -0.07138866 C112.20053958 -0.09360983 121.83061796 -0.10016839 131.46079516 -0.09431225 C137.19899164 -0.09095589 142.93703435 -0.09326911 148.67520905 -0.11056328 C154.07624506 -0.12613224 159.47692809 -0.12196729 164.87795067 -0.10325813 C166.84823481 -0.09959925 168.81854568 -0.10260078 170.78880501 -0.11314392 C193.15784208 -0.22360627 211.44803578 4.25996307 227.82324219 20.42358398 C241.49954838 34.37908891 246.88053438 51.43705693 246.83976746 70.75076294 C246.84203301 71.55218023 246.84429857 72.35359752 246.84663278 73.17930019 C246.85292411 75.84423919 246.85214656 78.5091267 246.85131836 81.17407227 C246.85431295 83.09339971 246.85771617 85.01272655 246.86149597 86.93205261 C246.87031113 92.13276949 246.87267308 97.33346989 246.87331176 102.53419352 C246.87402384 105.78872631 246.87616121 109.04325495 246.87880898 112.29778671 C246.88805526 123.66719578 246.89214489 135.03659315 246.89135742 146.40600586 C246.89075732 156.97822453 246.90129782 167.55039207 246.91710109 178.12259781 C246.93021071 187.21929574 246.93553986 196.31597703 246.93490201 205.41268432 C246.93464797 210.83672693 246.93744726 216.2607241 246.94808006 221.68475723 C246.95781839 226.79180247 246.9578012 231.89875938 246.95056343 237.00580788 C246.94952458 238.87050189 246.95183846 240.73520157 246.95792389 242.59988594 C247.04395936 270.81088877 247.04395936 270.81088877 241.20605469 281.59155273 C240.85784668 282.25662842 240.50963867 282.9217041 240.15087891 283.60693359 C232.37628321 297.79531397 219.98808027 307.35179837 204.70605469 312.40405273 C199.57872208 313.49025148 194.62310393 313.54973853 189.40951538 313.54449463 C188.48180568 313.54746575 187.55409599 313.55043687 186.59827387 313.55349803 C183.4940549 313.56215972 180.38987462 313.56369114 177.28564453 313.56518555 C175.05795205 313.56981554 172.83026035 313.57484045 170.60256958 313.58023071 C164.55272561 313.59333999 158.50289273 313.59979691 152.45303679 313.60424137 C148.67087499 313.60717472 144.88871621 313.61128005 141.10655594 313.61574554 C130.62186786 313.6278516 120.13718156 313.63823435 109.6524868 313.64162064 C108.98210091 313.6418402 108.31171501 313.64205977 107.62101439 313.64228599 C106.61311335 313.6426134 106.61311335 313.6426134 105.58485067 313.64294744 C104.22339654 313.64339089 102.86194241 313.64383745 101.50048828 313.64428711 C100.82516885 313.64450854 100.14984941 313.64472997 99.45406576 313.64495811 C88.52116037 313.64890281 77.58832177 313.66634837 66.65544216 313.68964663 C55.41382983 313.71340815 44.17224977 313.72556713 32.93060839 313.72698855 C26.62573112 313.72803509 20.32094809 313.73391064 14.01609421 313.75180817 C8.08171809 313.76832645 2.14750666 313.77042604 -3.78688431 313.76166916 C-5.95880577 313.76090078 -8.13073622 313.76521513 -10.30263519 313.77512741 C-30.89686421 313.86356639 -46.33561875 311.2076262 -61.56347656 296.24780273 C-73.16976187 284.15999772 -77.45358509 269.68188575 -77.43438721 253.0324707 C-77.43735833 252.21627919 -77.44032945 251.40008768 -77.44339061 250.55916309 C-77.45202658 247.83817825 -77.45358153 245.11723767 -77.45507812 242.39624023 C-77.45971002 240.43927416 -77.46473517 238.48230899 -77.47012329 236.52534485 C-77.48321595 231.21707059 -77.48968645 225.90880896 -77.49413395 220.60052109 C-77.49707052 217.27881451 -77.50117649 213.95711135 -77.50563812 210.63540649 C-77.51930653 200.22738569 -77.52897567 189.81937273 -77.53284001 179.41134357 C-77.53731537 167.42562665 -77.55484183 155.44002406 -77.58384061 143.45434189 C-77.60551422 134.17166285 -77.61554737 124.88901585 -77.61688113 115.6063118 C-77.61792535 110.07097215 -77.62375091 104.53574009 -77.64170074 99.00042725 C-77.65827923 93.7866629 -77.66028983 88.57308587 -77.65156174 83.35930443 C-77.6507965 81.45632612 -77.65506554 79.55333733 -77.66501999 77.6503849 C-77.77189705 55.92749099 -74.48466521 36.96676685 -59.29394531 20.40405273 C-53.65682412 14.74953302 -47.41130159 10.66406029 -40.35644531 7.02905273 C-39.73688965 6.70702881 -39.11733398 6.38500488 -38.47900391 6.05322266 C-26.03098519 0.00836751 -13.51791083 -0.03439142 0 0 Z " fill="#FCF0DD" transform="translate(165.2939453125,52.595947265625)"/>
<path d="M0 0 C2.03490065 -0.00571117 4.06979809 -0.0126783 6.10469055 -0.02079773 C11.60285941 -0.03866435 17.10086809 -0.03757267 22.5990572 -0.03185534 C27.20347597 -0.02875323 31.80786444 -0.03486748 36.41227889 -0.04089409 C47.28383033 -0.0549172 58.15530315 -0.05339724 69.02685547 -0.04199219 C80.20812296 -0.03052074 91.38915032 -0.04457547 102.57038617 -0.07138866 C112.20053958 -0.09360983 121.83061796 -0.10016839 131.46079516 -0.09431225 C137.19899164 -0.09095589 142.93703435 -0.09326911 148.67520905 -0.11056328 C154.07624506 -0.12613224 159.47692809 -0.12196729 164.87795067 -0.10325813 C166.84823481 -0.09959925 168.81854568 -0.10260078 170.78880501 -0.11314392 C193.15784208 -0.22360627 211.44803578 4.25996307 227.82324219 20.42358398 C241.49954838 34.37908891 246.88053438 51.43705693 246.83976746 70.75076294 C246.84203301 71.55218023 246.84429857 72.35359752 246.84663278 73.17930019 C246.85292411 75.84423919 246.85214656 78.5091267 246.85131836 81.17407227 C246.85431295 83.09339971 246.85771617 85.01272655 246.86149597 86.93205261 C246.87031113 92.13276949 246.87267308 97.33346989 246.87331176 102.53419352 C246.87402384 105.78872631 246.87616121 109.04325495 246.87880898 112.29778671 C246.88805526 123.66719578 246.89214489 135.03659315 246.89135742 146.40600586 C246.89075732 156.97822453 246.90129782 167.55039207 246.91710109 178.12259781 C246.93021071 187.21929574 246.93553986 196.31597703 246.93490201 205.41268432 C246.93464797 210.83672693 246.93744726 216.2607241 246.94808006 221.68475723 C246.95781839 226.79180247 246.9578012 231.89875938 246.95056343 237.00580788 C246.94952458 238.87050189 246.95183846 240.73520157 246.95792389 242.59988594 C247.04395936 270.81088877 247.04395936 270.81088877 241.20605469 281.59155273 C240.85784668 282.25662842 240.50963867 282.9217041 240.15087891 283.60693359 C232.37628321 297.79531397 219.98808027 307.35179837 204.70605469 312.40405273 C199.57872208 313.49025148 194.62310393 313.54973853 189.40951538 313.54449463 C188.48180568 313.54746575 187.55409599 313.55043687 186.59827387 313.55349803 C183.4940549 313.56215972 180.38987462 313.56369114 177.28564453 313.56518555 C175.05795205 313.56981554 172.83026035 313.57484045 170.60256958 313.58023071 C164.55272561 313.59333999 158.50289273 313.59979691 152.45303679 313.60424137 C148.67087499 313.60717472 144.88871621 313.61128005 141.10655594 313.61574554 C130.62186786 313.6278516 120.13718156 313.63823435 109.6524868 313.64162064 C108.98210091 313.6418402 108.31171501 313.64205977 107.62101439 313.64228599 C106.61311335 313.6426134 106.61311335 313.6426134 105.58485067 313.64294744 C104.22339654 313.64339089 102.86194241 313.64383745 101.50048828 313.64428711 C100.82516885 313.64450854 100.14984941 313.64472997 99.45406576 313.64495811 C88.52116037 313.64890281 77.58832177 313.66634837 66.65544216 313.68964663 C55.41382983 313.71340815 44.17224977 313.72556713 32.93060839 313.72698855 C26.62573112 313.72803509 20.32094809 313.73391064 14.01609421 313.75180817 C8.08171809 313.76832645 2.14750666 313.77042604 -3.78688431 313.76166916 C-5.95880577 313.76090078 -8.13073622 313.76521513 -10.30263519 313.77512741 C-30.89686421 313.86356639 -46.33561875 311.2076262 -61.56347656 296.24780273 C-73.16976187 284.15999772 -77.45358509 269.68188575 -77.43438721 253.0324707 C-77.43735833 252.21627919 -77.44032945 251.40008768 -77.44339061 250.55916309 C-77.45202658 247.83817825 -77.45358153 245.11723767 -77.45507812 242.39624023 C-77.45971002 240.43927416 -77.46473517 238.48230899 -77.47012329 236.52534485 C-77.48321595 231.21707059 -77.48968645 225.90880896 -77.49413395 220.60052109 C-77.49707052 217.27881451 -77.50117649 213.95711135 -77.50563812 210.63540649 C-77.51930653 200.22738569 -77.52897567 189.81937273 -77.53284001 179.41134357 C-77.53731537 167.42562665 -77.55484183 155.44002406 -77.58384061 143.45434189 C-77.60551422 134.17166285 -77.61554737 124.88901585 -77.61688113 115.6063118 C-77.61792535 110.07097215 -77.62375091 104.53574009 -77.64170074 99.00042725 C-77.65827923 93.7866629 -77.66028983 88.57308587 -77.65156174 83.35930443 C-77.6507965 81.45632612 -77.65506554 79.55333733 -77.66501999 77.6503849 C-77.77189705 55.92749099 -74.48466521 36.96676685 -59.29394531 20.40405273 C-53.65682412 14.74953302 -47.41130159 10.66406029 -40.35644531 7.02905273 C-39.73688965 6.70702881 -39.11733398 6.38500488 -38.47900391 6.05322266 C-26.03098519 0.00836751 -13.51791083 -0.03439142 0 0 Z M-50.29394531 28.40405273 C-61.81553789 42.23462844 -65.79600568 57.21707245 -65.63452148 74.99707031 C-65.63495956 76.28643997 -65.63539764 77.57580963 -65.635849 78.9042511 C-65.63669981 82.39523561 -65.61922489 85.88590257 -65.59812713 89.37681413 C-65.5792054 93.041613 -65.57759781 96.70642141 -65.5740509 100.3712616 C-65.56477547 107.29117788 -65.54022361 114.21094974 -65.51000243 121.13080281 C-65.47631707 129.01726991 -65.45993711 136.90374439 -65.44491613 144.79026568 C-65.41366928 160.99494678 -65.36057626 177.19947806 -65.29394531 193.40405273 C-64.56213472 193.192066 -63.83032413 192.98007926 -63.07633746 192.76166868 C-55.81377096 190.78351611 -49.21278807 189.96984205 -41.7059021 190.00964355 C-40.60422907 190.00355245 -39.50255605 189.99746135 -38.36749899 189.99118567 C-34.71054925 189.97466125 -31.05395173 189.97931636 -27.39697266 189.98413086 C-24.76120326 189.97678462 -22.12545939 189.96828847 -19.48970032 189.95846558 C-13.09510796 189.93750308 -6.70060644 189.93286527 -0.30598377 189.93465346 C4.89340738 189.93596511 10.09277037 189.93213653 15.29215622 189.92472839 C16.79419688 189.92262905 18.29623755 189.92053145 19.79827821 189.91843557 C20.91991538 189.91687028 20.91991538 189.91687028 22.06421189 189.91527337 C36.1763237 189.89640993 50.28838342 189.89740994 64.40050261 189.90424269 C77.29701919 189.90982208 90.19333737 189.88896902 103.08980758 189.85588223 C116.35433841 189.82211682 129.61877423 189.80697998 142.88334882 189.81159925 C150.32158404 189.81384019 157.75963565 189.80865519 165.19783401 189.78370667 C171.52693792 189.76265724 177.85575738 189.75913797 184.18487312 189.77800626 C187.41063956 189.78713991 190.63576832 189.78564961 193.86151314 189.7676506 C197.36548319 189.7494504 200.86805061 189.76221508 204.37197876 189.78259277 C205.38133 189.77007493 206.39068124 189.75755708 207.43061888 189.7446599 C216.47251668 189.85707462 223.36128311 192.80539509 229.76855469 199.21655273 C230.31640625 199.82112305 230.86425781 200.42569336 231.42871094 201.04858398 C232.06099609 201.71954102 232.06099609 201.71954102 232.70605469 202.40405273 C233.03605469 202.40405273 233.36605469 202.40405273 233.70605469 202.40405273 C233.79966416 183.42765612 233.8701151 164.45130663 233.91330338 145.47472668 C233.93389308 136.66275991 233.96194464 127.85093694 234.0078125 119.0390625 C234.04779065 111.3549975 234.07351359 103.6710367 234.08240867 95.98687059 C234.08760492 91.92141044 234.0997422 87.85624828 234.12897491 83.79088402 C234.15631803 79.9568959 234.164462 76.12332579 234.15848541 72.28924942 C234.15957728 70.88930927 234.16741822 69.48935375 234.18287659 68.08949852 C234.3575547 51.44123329 228.45812623 38.75826953 217.12011719 26.66186523 C210.38192749 20.35980432 202.3693239 17.21493043 193.70605469 14.40405273 C192.71605469 14.07405273 191.72605469 13.74405273 190.70605469 13.40405273 C187.92529808 13.30583884 185.16964374 13.26500218 182.38874817 13.27033997 C181.53019987 13.26807441 180.67165158 13.26580885 179.78708667 13.26347464 C176.89914125 13.25712515 174.01124265 13.25796463 171.12329102 13.25878906 C169.05703673 13.2557981 166.99078301 13.25239571 164.92453003 13.24861145 C159.30244602 13.23975922 153.68037721 13.23743278 148.05828691 13.23679566 C143.36658908 13.23584714 138.67489481 13.23216936 133.98319834 13.22862357 C122.91221829 13.22047377 111.84124638 13.21803975 100.77026367 13.21875 C89.34995196 13.21935041 77.92968754 13.20880709 66.50938779 13.19300634 C56.70715799 13.17992753 46.90494364 13.17456627 37.10270518 13.17520541 C31.24729959 13.17546037 25.39193598 13.17261053 19.53653908 13.16202736 C14.02657986 13.15234112 8.51670269 13.15227087 3.00674057 13.15954399 C0.98633771 13.16058929 -1.03407026 13.1582302 -3.05446434 13.15218353 C-5.81697927 13.14445268 -8.57921163 13.14911577 -11.34172058 13.15681458 C-12.53518208 13.14909923 -12.53518208 13.14909923 -13.75275391 13.14122802 C-27.09350077 13.22313089 -40.79960164 19.00279086 -50.29394531 28.40405273 Z " fill="#323430" transform="translate(165.2939453125,52.595947265625)"/>
<path d="M0 0 C1.98 1.65 3.96 3.3 6 5 C6 11.93 6 18.86 6 26 C21.84 26 37.68 26 54 26 C54 19.73 54 13.46 54 7 C59.70921986 0.14893617 59.70921986 0.14893617 64.25 -0.375 C69.19272958 0.11927296 70.53828301 1.53828301 74 5 C75.14814997 7.29629994 75.30769809 9.07698086 75.5625 11.625 C75.64628906 12.44226563 75.73007812 13.25953125 75.81640625 14.1015625 C75.87699219 14.72804687 75.93757813 15.35453125 76 16 C76.99 15.34 77.98 14.68 79 14 C82.64186153 13.52497458 84.4593717 13.68592969 87.65600586 15.54296875 C90.75207211 18.78834015 90.70847091 21.42358353 90.62890625 25.6875 C90.63131821 26.42701904 90.63373016 27.16653809 90.63621521 27.9284668 C90.63523782 29.48849868 90.62186956 31.04856571 90.59692383 32.60839844 C90.56260453 34.99273797 90.57626742 37.37337127 90.59570312 39.7578125 C90.58880438 41.2760574 90.57913172 42.79429276 90.56640625 44.3125 C90.57384605 45.37827271 90.57384605 45.37827271 90.58143616 46.46557617 C90.50019664 49.88977642 90.22523357 51.70759202 88.10986328 54.45385742 C85.60959174 56.2860976 84.37536899 56.45931521 81.3125 56.3125 C80.13107422 56.27576172 80.13107422 56.27576172 78.92578125 56.23828125 C77 56 77 56 76 55 C75.98582031 55.58007812 75.97164063 56.16015625 75.95703125 56.7578125 C75.58452025 62.8589386 74.38435075 65.72258464 70 70 C66.78305636 71.60847182 63.47862778 71.61309149 60 71 C57.30894802 68.82425584 55.54467072 67.08934144 54 64 C54 57.4 54 50.8 54 44 C38.16 44 22.32 44 6 44 C6 51.26 6 58.52 6 66 C-0.97309617 71.81091348 -0.97309617 71.81091348 -6.03515625 71.5 C-9.5874283 70.5960421 -11.46296895 68.59890985 -14 66 C-15.20272819 63.59454362 -15.10071472 62.05003047 -15.0625 59.375 C-15.04896484 58.14910156 -15.04896484 58.14910156 -15.03515625 56.8984375 C-15.02355469 56.27195313 -15.01195312 55.64546875 -15 55 C-15.99 55.495 -15.99 55.495 -17 56 C-19.0234375 56.23828125 -19.0234375 56.23828125 -21.375 56.3125 C-22.14585937 56.34988281 -22.91671875 56.38726562 -23.7109375 56.42578125 C-26.97422209 55.81878804 -27.97331342 54.61108144 -30 52 C-30.41062939 49.37967709 -30.58535053 47.18469807 -30.56640625 44.56640625 C-30.57260483 43.85145493 -30.57880341 43.1365036 -30.58518982 42.39988708 C-30.59227779 40.8911983 -30.58913163 39.38243114 -30.57641602 37.8737793 C-30.5625607 35.57258169 -30.59661089 33.27546285 -30.63476562 30.97460938 C-30.63571704 29.50520734 -30.63385677 28.03580025 -30.62890625 26.56640625 C-30.64216446 25.88292618 -30.65542267 25.19944611 -30.66908264 24.49525452 C-30.59563573 20.70136276 -30.05633268 19.07196311 -27.69116211 16.05053711 C-24.24353918 13.42361295 -22.23775782 13.52025383 -18 14 C-17.34 14.33 -16.68 14.66 -16 15 C-15.85304688 14.11248047 -15.85304688 14.11248047 -15.703125 13.20703125 C-14.74648024 8.15165852 -13.75233265 4.75233265 -10 1 C-6.81929763 -0.59035119 -3.41669549 -0.78937448 0 0 Z " fill="#323430" transform="translate(296,142)"/>
<path d="M0 0 C2.03490065 -0.00571117 4.06979809 -0.0126783 6.10469055 -0.02079773 C11.60285941 -0.03866435 17.10086809 -0.03757267 22.5990572 -0.03185534 C27.20347597 -0.02875323 31.80786444 -0.03486748 36.41227889 -0.04089409 C47.28383033 -0.0549172 58.15530315 -0.05339724 69.02685547 -0.04199219 C80.20812296 -0.03052074 91.38915032 -0.04457547 102.57038617 -0.07138866 C112.20053958 -0.09360983 121.83061796 -0.10016839 131.46079516 -0.09431225 C137.19899164 -0.09095589 142.93703435 -0.09326911 148.67520905 -0.11056328 C154.07624506 -0.12613224 159.47692809 -0.12196729 164.87795067 -0.10325813 C166.84823481 -0.09959925 168.81854568 -0.10260078 170.78880501 -0.11314392 C193.16276196 -0.22363056 211.41565248 4.2697259 227.81542969 20.40405273 C240.70605469 33.5454681 240.70605469 33.5454681 240.70605469 40.40405273 C237.45605469 41.09155273 237.45605469 41.09155273 233.70605469 41.40405273 C231.45605469 39.90405273 231.45605469 39.90405273 229.70605469 38.40405273 C228.22105469 38.89905273 228.22105469 38.89905273 226.70605469 39.40405273 C225.85333984 38.31737305 225.85333984 38.31737305 224.98339844 37.20874023 C215.36990917 25.17181711 206.0288531 18.12959579 190.70605469 14.40405273 C187.76996232 14.13588458 184.85454211 14.13355128 181.9077301 14.15008545 C181.04576411 14.14696547 180.18379811 14.14384549 179.29571193 14.14063096 C176.42013397 14.13268182 173.54476883 14.1389626 170.66918945 14.14526367 C168.60234453 14.14255242 166.53550058 14.13899074 164.46865845 14.13464355 C158.86331854 14.12553268 153.25805233 14.12905863 147.65271115 14.13540173 C141.78278993 14.14046911 135.91287497 14.13576815 130.04295349 14.13262939 C120.18479277 14.12899162 110.32666203 14.13378361 100.46850586 14.14331055 C89.07764392 14.1541917 77.68685359 14.1506712 66.29599339 14.13965774 C56.51066398 14.1305759 46.7253561 14.12930407 36.94002384 14.13453507 C31.09809663 14.13765022 25.25620306 14.13807666 19.41427803 14.1314621 C13.92067368 14.12567636 8.42716147 14.12970809 2.93356705 14.14125061 C0.9196138 14.14389074 -1.09434722 14.14314316 -3.10829735 14.13872528 C-5.86184792 14.13324281 -8.61510509 14.14013674 -11.36863708 14.15008545 C-12.16154961 14.14562401 -12.95446213 14.14116256 -13.7714023 14.13656592 C-26.83289536 14.22780812 -38.81118216 19.55347379 -48.29394531 28.40405273 C-48.95394531 28.40405273 -49.61394531 28.40405273 -50.29394531 28.40405273 C-50.54273437 28.92483398 -50.79152344 29.44561523 -51.04785156 29.98217773 C-52.65796569 33.11155316 -54.4240829 36.13625495 -56.23144531 39.15405273 C-56.75254883 40.05704102 -56.75254883 40.05704102 -57.28417969 40.97827148 C-58.32128906 42.70092773 -58.32128906 42.70092773 -60.29394531 45.40405273 C-61.28394531 45.40405273 -62.27394531 45.40405273 -63.29394531 45.40405273 C-63.62394531 46.06405273 -63.95394531 46.72405273 -64.29394531 47.40405273 C-64.95394531 47.07405273 -65.61394531 46.74405273 -66.29394531 46.40405273 C-68.41078372 47.29568851 -68.41078372 47.29568851 -70.29394531 48.40405273 C-70.29394531 49.06405273 -70.29394531 49.72405273 -70.29394531 50.40405273 C-70.95394531 50.40405273 -71.61394531 50.40405273 -72.29394531 50.40405273 C-72.62394531 51.06405273 -72.95394531 51.72405273 -73.29394531 52.40405273 C-74.28394531 52.89905273 -74.28394531 52.89905273 -75.29394531 53.40405273 C-74.47064546 39.13352203 -66.57596849 27.70855129 -56.76269531 17.86499023 C-51.71676055 13.44219802 -46.29456397 10.08866236 -40.35644531 7.02905273 C-39.73688965 6.70702881 -39.11733398 6.38500488 -38.47900391 6.05322266 C-26.03098519 0.00836751 -13.51791083 -0.03439142 0 0 Z " fill="#333430" transform="translate(165.2939453125,52.595947265625)"/>
<path d="M0 0 C1.35726196 0.00616333 1.35726196 0.00616333 2.74194336 0.01245117 C3.72356445 0.01438477 4.70518555 0.01631836 5.71655273 0.01831055 C6.74458008 0.03055664 7.77260742 0.04280273 8.83178711 0.05541992 C9.86368164 0.05606445 10.89557617 0.05670898 11.95874023 0.05737305 C19.62912714 0.10275995 19.62912714 0.10275995 20.76928711 1.24291992 C20.8750396 3.87953973 20.91606739 6.49010113 20.91455078 9.12744141 C20.91790939 9.95342834 20.92126801 10.77941528 20.92472839 11.63043213 C20.9342676 14.37497439 20.93618298 17.11945584 20.93725586 19.86401367 C20.94046636 21.76351446 20.94383027 23.663015 20.94734192 25.56251526 C20.95334062 29.54982069 20.95518106 33.53710443 20.95458984 37.52441406 C20.95448817 42.64386582 20.968142 47.76317903 20.98536205 52.88259792 C20.99645852 56.80728296 20.99850978 60.73193425 20.99798012 64.65663338 C20.99916373 66.54455099 21.00360672 68.43246937 21.01131248 70.32037163 C21.02106514 72.95668223 21.01825318 75.59268884 21.01220703 78.22900391 C21.01782654 79.01505508 21.02344604 79.80110626 21.02923584 80.61097717 C20.99760259 86.01460444 20.99760259 86.01460444 18.76928711 88.24291992 C15.47685107 88.69161654 12.15130968 88.56700235 8.83178711 88.55541992 C7.45216797 88.57958984 7.45216797 88.57958984 6.04467773 88.60424805 C4.71919922 88.60521484 4.71919922 88.60521484 3.36694336 88.60620117 C2.55749268 88.60918213 1.74804199 88.61216309 0.9140625 88.61523438 C-1.91280405 88.1245148 -2.57129099 87.59874347 -4.23071289 85.24291992 C-4.5215991 82.52365276 -4.63029858 80.03425042 -4.60302734 77.31494141 C-4.60667801 76.50816956 -4.61032867 75.70139771 -4.61408997 74.87017822 C-4.6222016 72.20124315 -4.60858165 69.53291398 -4.59399414 66.86401367 C-4.59347566 65.01221212 -4.5939929 63.16041001 -4.59550476 61.30860901 C-4.59541501 57.42733547 -4.58497949 53.54626954 -4.56689453 49.66503906 C-4.54419146 44.68237577 -4.54366583 39.70001552 -4.55041218 34.71731472 C-4.55374835 30.8938374 -4.54712898 27.07042957 -4.53728294 23.24696541 C-4.53342577 21.40929592 -4.53228486 19.5716187 -4.53386879 17.73394585 C-4.53423834 15.16964776 -4.52165101 12.60574307 -4.50537109 10.04150391 C-4.50784851 9.2772963 -4.51032593 8.51308868 -4.51287842 7.72572327 C-4.43924016 0.48342388 -4.43924016 0.48342388 0 0 Z " fill="#353632" transform="translate(218.230712890625,128.757080078125)"/>
<path d="M0 0 C1.18604324 -0.00990463 2.37208649 -0.01980927 3.59407043 -0.03001404 C4.88669296 -0.02551239 6.17931549 -0.02101074 7.5111084 -0.01637268 C8.89288383 -0.02207795 10.27465454 -0.02904283 11.65641785 -0.03717041 C15.40227388 -0.05509834 19.14789562 -0.05393437 22.89378166 -0.04822803 C26.02260666 -0.04513608 29.15138666 -0.05122857 32.28020525 -0.05726677 C39.66141032 -0.07130874 47.04249964 -0.06975305 54.42370605 -0.05836487 C62.03611068 -0.04687946 69.64816318 -0.06096694 77.26052141 -0.08776134 C83.7999496 -0.10991653 90.33926724 -0.11655629 96.8787303 -0.11068493 C100.78291223 -0.10731422 104.68686834 -0.10973796 108.59101868 -0.12693596 C112.26179091 -0.14240069 115.93204117 -0.13845545 119.60279274 -0.11963081 C121.59015844 -0.1141869 123.57754754 -0.12846197 125.56486511 -0.14332581 C126.75090836 -0.13349167 127.9369516 -0.12365753 129.15893555 -0.11352539 C130.18761497 -0.11331611 131.2162944 -0.11310682 132.27614594 -0.1128912 C135.8292505 0.52156396 137.5053473 1.90628731 140.07946777 4.38768005 C141.20446777 6.82518005 141.20446777 6.82518005 141.07946777 9.38768005 C139.44482373 11.97577985 138.69905256 12.95356948 136.07946777 14.38768005 C131.54382191 15.15045564 127.0379744 15.04927999 122.44836426 15.00291443 C121.04526092 15.00641712 119.64216155 15.01207738 118.23907471 15.01972961 C114.43524012 15.0339651 110.63212947 15.01692979 106.82836413 14.99344444 C102.84639947 14.97332466 98.86446454 14.97921551 94.88246155 14.98155212 C88.19678823 14.98149857 81.51139771 14.96175127 74.82580566 14.92967224 C67.09640045 14.89276504 59.36736544 14.88399891 51.6378836 14.89096975 C44.20064192 14.89727442 36.76352718 14.88652215 29.32631111 14.86700439 C26.16171523 14.85882991 22.99718422 14.85612092 19.83257866 14.85769653 C16.10685018 14.85857535 12.38147364 14.84436045 8.65583801 14.81847 C6.63611057 14.8078897 4.61632301 14.81198106 2.59657288 14.81648254 C1.39507599 14.80513275 0.1935791 14.79378296 -1.04432678 14.78208923 C-2.08867669 14.77836052 -3.1330266 14.77463181 -4.20902348 14.7707901 C-7.30243558 14.33372079 -8.68106843 13.53089462 -10.92053223 11.38768005 C-11.48693848 9.45018005 -11.48693848 9.45018005 -11.48303223 7.38768005 C-11.50494629 6.70705505 -11.52686035 6.02643005 -11.54943848 5.32518005 C-10.92053223 3.38768005 -10.92053223 3.38768005 -8.75125885 1.79081631 C-5.55306566 0.20553401 -3.55150062 0.00838918 0 0 Z " fill="#B8D2D1" transform="translate(229.9205322265625,89.61231994628906)"/>
<path d="M0 0 C1.9375 1.0625 1.9375 1.0625 3 3 C3.84066743 9.61937293 3.84066743 9.61937293 1.84448242 12.89770508 C0.18824793 14.82846219 -1.54841227 16.60460776 -3.375 18.375 C-4.01187744 19.023479 -4.64875488 19.67195801 -5.30493164 20.34008789 C-7.18478048 22.2464168 -9.08849604 24.12548295 -11 26 C-11.97128979 26.9688128 -12.94147769 27.93873259 -13.91015625 28.91015625 C-15.55339367 30.55339367 -17.20157859 32.19170358 -18.85546875 33.82421875 C-20.74537836 35.74166802 -22.50924431 37.69824082 -24.25 39.75 C-29.3028915 45.66528404 -34.95502662 51.03778119 -40.48535156 56.5012207 C-42.0379562 57.96199748 -42.0379562 57.96199748 -43.25683594 59.69213867 C-46.2000232 61.90035354 -48.44655699 61.49395744 -52 61 C-54.38672358 59.31297966 -56.14882606 57.83644832 -58.15234375 55.77734375 C-58.69734024 55.23904434 -59.24233673 54.70074493 -59.80384827 54.14613342 C-60.94759432 53.00713555 -62.08260896 51.85931012 -63.20922852 50.70336914 C-64.93277647 48.94232629 -66.69050032 47.22177091 -68.45507812 45.50195312 C-69.56475126 44.38765406 -70.67225083 43.27118534 -71.77734375 42.15234375 C-72.30222885 41.64162827 -72.82711395 41.13091278 -73.36790466 40.60472107 C-76.05038381 37.79839563 -76.97607126 36.19284197 -77.45922852 32.29907227 C-77 29 -77 29 -74.875 26.0625 C-72 24 -72 24 -69.0625 23.375 C-62.92491148 24.62756909 -59.36376668 29.51633639 -55.6875 34.25390625 C-53.40088794 36.61991457 -50.76867294 38.24266176 -48 40 C-46.74509766 38.63681641 -46.74509766 38.63681641 -45.46484375 37.24609375 C-38.51490108 29.73111509 -31.46387554 22.35415047 -24.15209961 15.18920898 C-20.69071109 11.77727566 -17.44584906 8.28050403 -14.35327148 4.52929688 C-9.92828397 -0.47126632 -6.43651229 -1.82165442 0 0 Z " fill="#5DB197" transform="translate(200,90)"/>
<path d="M0 0 C4.29 0 8.58 0 13 0 C16.84508918 8.04869484 19.50838383 16.39031642 22.1875 24.875 C22.64210637 26.30223369 23.09718119 27.72931825 23.55273438 29.15625 C24.38206914 31.7554467 25.20813726 34.35559251 26.03198242 36.95654297 C26.67413794 38.97548639 27.3300376 40.99011279 28 43 C30.95246894 35.50665178 33.12093155 27.85318189 35.30664062 20.10742188 C37.25975594 13.28239308 39.50648801 6.64753856 42 0 C46.62 0 51.24 0 56 0 C55.48576967 7.64917611 53.49999326 14.27599691 51 21.5 C50.60498291 22.66313721 50.20996582 23.82627441 49.80297852 25.0246582 C45.6879996 37.07061919 41.37080196 49.04487503 37 61 C31.06 61 25.12 61 19 61 C17.91201696 58.10584288 16.82959691 55.20978557 15.75 52.3125 C15.44964844 51.51521484 15.14929688 50.71792969 14.83984375 49.89648438 C13.09698727 45.20560471 11.5151822 40.49737976 10.06640625 35.70703125 C7.63146154 27.66177031 4.78272389 19.77105477 1.91601562 11.87109375 C1.52478516 10.76636719 1.13355469 9.66164063 0.73046875 8.5234375 C0.19522583 7.037229 0.19522583 7.037229 -0.35083008 5.52099609 C-1 3 -1 3 0 0 Z " fill="#F9EFDE" transform="translate(124,271)"/>
<path d="M0 0 C5.10938308 3.03538403 8.02439317 7.84327001 10.9375 12.875 C11.92677535 17.02995648 11.90090397 21.25027575 11.5625 25.5 C10.5625 26.5 10.5625 26.5 7.60327148 26.61352539 C6.30977783 26.60828857 5.01628418 26.60305176 3.68359375 26.59765625 C2.65360008 26.59553383 2.65360008 26.59553383 1.60279846 26.59336853 C-0.59817801 26.58775479 -2.79905409 26.57520007 -5 26.5625 C-6.48893083 26.55748676 -7.97786324 26.55292355 -9.46679688 26.54882812 C-13.12373075 26.53778093 -16.78060558 26.52050713 -20.4375 26.5 C-18.58926978 30.87583217 -18.58926978 30.87583217 -15.125 33.875 C-12.04580825 34.5910911 -9.58818313 34.83517906 -6.4375 34.5 C-5.85613281 34.00242187 -5.27476562 33.50484375 -4.67578125 32.9921875 C-1.5937894 30.93752627 0.64918432 31.20260053 4.3125 31.3125 C5.48296875 31.33957031 6.6534375 31.36664063 7.859375 31.39453125 C8.75140625 31.42933594 9.6434375 31.46414063 10.5625 31.5 C9.92112678 36.82339775 7.75789616 38.70277972 3.734375 41.984375 C-2.60788257 46.41026697 -10.44562701 46.32247826 -17.83203125 45.10546875 C-24.20362752 43.42301999 -27.83672338 39.92556043 -31.4375 34.5 C-34.9044459 28.23235403 -35.50497796 21.87733101 -33.81640625 14.953125 C-31.3313599 7.6636557 -27.00677652 2.75437815 -20.078125 -0.6640625 C-13.81689429 -2.64616808 -6.06869676 -2.64773256 0 0 Z " fill="#F7EEDD" transform="translate(265.4375,287.5)"/>
<path d="M0 0 C0.886875 -0.00257813 1.77375 -0.00515625 2.6875 -0.0078125 C4.0796875 0.00378906 4.0796875 0.00378906 5.5 0.015625 C6.428125 0.00789062 7.35625 0.00015625 8.3125 -0.0078125 C9.6428125 -0.00394531 9.6428125 -0.00394531 11 0 C11.8146875 0.00225586 12.629375 0.00451172 13.46875 0.00683594 C15.5 0.265625 15.5 0.265625 17.5 2.265625 C17.75396729 4.61865234 17.75396729 4.61865234 17.75878906 7.6015625 C17.76509338 8.71611816 17.77139771 9.83067383 17.77789307 10.97900391 C17.7738446 12.18733887 17.76979614 13.39567383 17.765625 14.640625 C17.76753845 15.87603027 17.7694519 17.11143555 17.77142334 18.38427734 C17.7731361 21.67153907 17.76506699 24.95861287 17.75390625 28.24584961 C17.75000397 30.2635703 17.75389171 32.28111701 17.76074219 34.29882812 C17.77306004 38.16284328 17.77160978 42.02659928 17.765625 45.890625 C17.76967346 47.09895996 17.77372192 48.30729492 17.77789307 49.55224609 C17.77158875 50.66680176 17.76528442 51.78135742 17.75878906 52.9296875 C17.75640228 54.40622803 17.75640228 54.40622803 17.75396729 55.91259766 C17.5 58.265625 17.5 58.265625 15.5 60.265625 C13.46875 60.52441406 13.46875 60.52441406 11 60.53125 C10.113125 60.53382813 9.22625 60.53640625 8.3125 60.5390625 C7.384375 60.53132813 6.45625 60.52359375 5.5 60.515625 C4.571875 60.52335937 3.64375 60.53109375 2.6875 60.5390625 C1.3571875 60.53519531 1.3571875 60.53519531 0 60.53125 C-0.8146875 60.52899414 -1.629375 60.52673828 -2.46875 60.52441406 C-4.5 60.265625 -4.5 60.265625 -6.5 58.265625 C-6.75396729 55.91259766 -6.75396729 55.91259766 -6.75878906 52.9296875 C-6.76509338 51.81513184 -6.77139771 50.70057617 -6.77789307 49.55224609 C-6.7738446 48.34391113 -6.76979614 47.13557617 -6.765625 45.890625 C-6.76753845 44.65521973 -6.7694519 43.41981445 -6.77142334 42.14697266 C-6.7731361 38.85971093 -6.76506699 35.57263713 -6.75390625 32.28540039 C-6.75000397 30.2676797 -6.75389171 28.25013299 -6.76074219 26.23242188 C-6.77306004 22.36840672 -6.77160978 18.50465072 -6.765625 14.640625 C-6.76967346 13.43229004 -6.77372192 12.22395508 -6.77789307 10.97900391 C-6.77158875 9.86444824 -6.76528442 8.74989258 -6.75878906 7.6015625 C-6.75719788 6.61720215 -6.75560669 5.6328418 -6.75396729 4.61865234 C-6.27222821 0.15530099 -3.91651916 0.01084479 0 0 Z " fill="#31332F" transform="translate(182.5,156.734375)"/>
<path d="M0 0 C6.084375 -0.020625 12.16875 -0.04125 18.4375 -0.0625 C20.36005615 -0.071604 22.2826123 -0.08070801 24.26342773 -0.09008789 C25.77848236 -0.09300707 27.29353777 -0.09555562 28.80859375 -0.09765625 C29.60237427 -0.10277222 30.39615479 -0.10788818 31.21398926 -0.11315918 C33.14302829 -0.11346956 35.07196912 -0.06235893 37 0 C38 1 38 1 38.1328125 3.25 C38.13023437 4.1575 38.12765625 5.065 38.125 6 C38.12886719 7.36125 38.12886719 7.36125 38.1328125 8.75 C38 11 38 11 37 12 C35.29227642 12.08713831 33.58101351 12.10700007 31.87109375 12.09765625 C30.31938477 12.09282227 30.31938477 12.09282227 28.73632812 12.08789062 C27.64771484 12.07951172 26.55910156 12.07113281 25.4375 12.0625 C23.7987793 12.05573242 23.7987793 12.05573242 22.12695312 12.04882812 C19.41794568 12.0369984 16.7089662 12.01906231 14 12 C14 16.29 14 20.58 14 25 C15.35996094 24.98839844 16.71992188 24.97679687 18.12109375 24.96484375 C19.8932278 24.95546738 21.66536333 24.94636702 23.4375 24.9375 C24.78424805 24.92493164 24.78424805 24.92493164 26.15820312 24.91210938 C27.01220703 24.90888672 27.86621094 24.90566406 28.74609375 24.90234375 C29.93223267 24.89448853 29.93223267 24.89448853 31.14233398 24.88647461 C33 25 33 25 34 26 C34.14310287 29.6691577 34.04221662 33.32715441 34 37 C27.4 37 20.8 37 14 37 C14 44.92 14 52.84 14 61 C9.38 61 4.76 61 0 61 C0 40.87 0 20.74 0 0 Z " fill="#FBF1DF" transform="translate(283,271)"/>
<path d="M0 0 C4.62 0 9.24 0 14 0 C14.03738281 2.28679687 14.07476562 4.57359375 14.11328125 6.9296875 C14.159472 9.14056046 14.21071425 11.35126243 14.26245117 13.56201172 C14.2957373 15.10031779 14.32375778 16.63874707 14.34643555 18.17724609 C14.37991558 20.38692818 14.4322231 22.59547735 14.48828125 24.8046875 C14.49467117 25.49432587 14.5010611 26.18396423 14.50764465 26.89450073 C14.54025714 29.04685389 14.54025714 29.04685389 15 32 C17.81598187 34.30260759 17.81598187 34.30260759 21 33.875 C24.56411453 32.8354666 25.19516527 32.17640426 27 29 C27.50377284 25.81055812 27.50377284 25.81055812 27.51171875 22.265625 C27.54716797 20.97011719 27.58261719 19.67460937 27.61914062 18.33984375 C27.64223867 16.97656774 27.66502114 15.61328636 27.6875 14.25 C27.72068648 12.87106138 27.75517738 11.4921535 27.79101562 10.11328125 C27.87351782 6.74247731 27.93843433 3.37125132 28 0 C32.29 0 36.58 0 41 0 C41 14.85 41 29.7 41 45 C37.04 45 33.08 45 29 45 C29 43.68 29 42.36 29 41 C28.32517578 41.54140625 28.32517578 41.54140625 27.63671875 42.09375 C21.87484271 46.25061447 17.00952413 47.00293506 10 46 C5.80720183 44.30503904 3.53522598 41.71229518 1 38 C-0.38200097 34.17223202 -0.12630807 30.18581379 -0.09765625 26.171875 C-0.0962413 25.42286926 -0.09482635 24.67386353 -0.09336853 23.90216064 C-0.08778659 21.51806588 -0.07523745 19.13406622 -0.0625 16.75 C-0.05748266 15.13020969 -0.05292016 13.51041791 -0.04882812 11.890625 C-0.03782308 7.92704688 -0.02057091 3.96353955 0 0 Z " fill="#F9EFDE" transform="translate(184,287)"/>
<path d="M0 0 C1.28874023 -0.0299707 1.28874023 -0.0299707 2.60351562 -0.06054688 C3.43431641 -0.05990234 4.26511719 -0.05925781 5.12109375 -0.05859375 C5.87704834 -0.06044678 6.63300293 -0.0622998 7.41186523 -0.06420898 C10.54737371 0.66725542 11.67589761 1.84611423 13.5625 4.4375 C14.06420898 7.67382812 14.06420898 7.67382812 14.05859375 11.46875 C14.06004898 12.14168091 14.06150421 12.81461182 14.06300354 13.50793457 C14.061348 14.9267206 14.04982503 16.34552523 14.02905273 17.76416016 C14.00008967 19.93079217 14.00844949 22.09497624 14.02148438 24.26171875 C14.01524642 25.64324101 14.00685502 27.02475557 13.99609375 28.40625 C13.98634521 29.65857422 13.97659668 30.91089844 13.96655273 32.20117188 C13.53584703 35.65098147 13.12932352 37.11377795 10.5625 39.4375 C8.43359375 39.93920898 8.43359375 39.93920898 6 39.93359375 C5.12085938 39.93423828 4.24171875 39.93488281 3.3359375 39.93554688 C2.42070312 39.91556641 1.50546875 39.89558594 0.5625 39.875 C-0.35273438 39.88208984 -1.26796875 39.88917969 -2.2109375 39.89648438 C-8.78190465 39.83385786 -8.78190465 39.83385786 -11.19775391 38.37329102 C-13.08991902 35.41878586 -12.86554223 32.42887188 -12.8359375 29.03125 C-12.83880768 28.31014038 -12.84167786 27.58903076 -12.84463501 26.84606934 C-12.84667452 25.32299005 -12.84115247 23.7998845 -12.82861328 22.27685547 C-12.81255643 19.94569322 -12.8284641 17.61626458 -12.84765625 15.28515625 C-12.8456738 13.80468367 -12.84183007 12.32421218 -12.8359375 10.84375 C-12.84201019 10.1468103 -12.84808289 9.44987061 -12.8543396 8.73181152 C-12.81339218 5.9138966 -12.73731326 3.89972425 -11.18188477 1.50170898 C-7.76505029 -0.58282306 -3.89118091 -0.03196639 0 0 Z " fill="#363734" transform="translate(148.4375,177.5625)"/>
<path d="M0 0 C1.97909398 -0.02686553 3.95828971 -0.04633375 5.9375 -0.0625 C7.03964844 -0.07410156 8.14179688 -0.08570313 9.27734375 -0.09765625 C12 0 12 0 13 1 C13.07205511 2.68608966 13.08386068 4.37500659 13.0625 6.0625 C13.05347656 6.98160156 13.04445313 7.90070313 13.03515625 8.84765625 C13.02355469 9.55792969 13.01195312 10.26820313 13 11 C13.63808594 10.98839844 14.27617187 10.97679687 14.93359375 10.96484375 C15.75988281 10.95582031 16.58617187 10.94679688 17.4375 10.9375 C18.26121094 10.92589844 19.08492188 10.91429687 19.93359375 10.90234375 C22 11 22 11 23 12 C23.14193337 15.00331018 23.04236378 17.99217134 23 21 C18.05 21.495 18.05 21.495 13 22 C12.89199053 25.08427046 12.81268998 28.16475747 12.75 31.25 C12.71648437 32.12269531 12.68296875 32.99539063 12.6484375 33.89453125 C12.5167386 39.06349663 12.5167386 39.06349663 14.8125 43.5625 C17.52250103 45.34335782 19.79653207 45.70877564 23 46 C23 49.3 23 52.6 23 56 C16.84262874 58.05245709 9.93571168 57.56050308 4 55 C-1.44523702 49.38676111 -0.66472899 42.56683349 -0.75 35.125 C-0.79447266 33.23394531 -0.79447266 33.23394531 -0.83984375 31.3046875 C-0.91033525 28.20306134 -0.96313741 25.10217803 -1 22 C-2.98 21.67 -4.96 21.34 -7 21 C-7.02689216 19.52093108 -7.04634621 18.04172517 -7.0625 16.5625 C-7.07410156 15.73878906 -7.08570313 14.91507812 -7.09765625 14.06640625 C-7 12 -7 12 -6 11 C-4.00041636 10.95919217 -1.99954746 10.95745644 0 11 C0 7.37 0 3.74 0 0 Z " fill="#F9F0DE" transform="translate(353,276)"/>
<path d="M0 0 C3.96 0 7.92 0 12 0 C12 14.85 12 29.7 12 45 C8.04 45 4.08 45 0 45 C-1.53084425 43.46915575 -1.12715779 42.08796856 -1.12939453 39.95507812 C-1.13254669 39.09748901 -1.13569885 38.2398999 -1.13894653 37.35632324 C-1.1369223 36.42404907 -1.13489807 35.4917749 -1.1328125 34.53125 C-1.13376923 33.58060669 -1.13472595 32.62996338 -1.13571167 31.6505127 C-1.13639357 29.63631118 -1.13453862 27.62210748 -1.13037109 25.60791016 C-1.12502298 22.51329645 -1.13031577 19.4188279 -1.13671875 16.32421875 C-1.13605797 14.37239551 -1.13477681 12.42057236 -1.1328125 10.46875 C-1.13483673 9.53647583 -1.13686096 8.60420166 -1.13894653 7.64367676 C-1.13579437 6.78608765 -1.13264221 5.92849854 -1.12939453 5.04492188 C-1.12859894 4.28626831 -1.12780334 3.52761475 -1.12698364 2.74597168 C-1 1 -1 1 0 0 Z " fill="#FCF2E1" transform="translate(328,287)"/>
<path d="M0 0 C3.73873517 5.60810276 3.14679553 12.83679556 3.12698364 19.40727234 C3.12854363 20.21503972 3.13010362 21.02280711 3.13171089 21.85505229 C3.13567513 24.54100111 3.13254912 27.22689264 3.12939453 29.9128418 C3.13075057 31.84677157 3.13253164 33.78070109 3.13470459 35.71463013 C3.13925388 40.95193485 3.1374999 46.18921982 3.1343255 51.42652488 C3.13179006 56.91080004 3.13414265 62.39507353 3.13571167 67.87934875 C3.13752944 77.08501488 3.13513686 86.29067298 3.13037109 95.49633789 C3.12492438 106.14029352 3.12669568 116.78423 3.1321975 127.42818516 C3.13673401 136.57060112 3.13737668 145.71301132 3.13475883 154.85542804 C3.13319965 160.31438022 3.13299258 165.7733234 3.13629532 171.23227501 C3.13918199 176.3614339 3.13718363 181.49056806 3.13140106 186.61972427 C3.13007796 188.50270992 3.13045997 190.38569765 3.13266373 192.26868248 C3.13539272 194.83704269 3.13197265 197.40532345 3.12698364 199.97367859 C3.13032973 201.09342206 3.13032973 201.09342206 3.13374341 202.23578662 C3.11973283 205.9496514 2.88922907 209.38868725 2 213 C1.67 213 1.34 213 1 213 C0.67 142.71 0.34 72.42 0 0 Z " fill="#2E2D27" transform="translate(409,104)"/>
<path d="M0 0 C2.4375 1.5625 2.4375 1.5625 4 4 C4.5 7.5625 4.5 7.5625 4 11 C2.4375 12.9375 2.4375 12.9375 0 14 C-3.39844421 14.35773097 -5.85873258 14.58904125 -8.9375 13 C-10.65886567 9.75978228 -10.52960415 6.58042244 -10 3 C-7.83165681 -1.08158719 -4.19361486 -0.51500533 0 0 Z " fill="#F7EFDF" transform="translate(337,269)"/>
<path d="M0 0 C0 3.92165239 -1.25271215 4.73024249 -3.875 7.5625 C-4.59429687 8.34753906 -5.31359375 9.13257812 -6.0546875 9.94140625 C-7.35054115 11.31272126 -8.66588202 12.66588202 -10 14 C-14.1694976 18.36328355 -14.1694976 18.36328355 -16.9375 23.625 C-18.15495408 26.34636794 -19.05007887 26.85284876 -21.5 28.4375 C-25.09023196 30.78638882 -25.96980362 32.78556026 -27 37 C-29.19888142 39.19888142 -30.11354058 39.4256104 -33.0625 40.0625 C-35.8007513 40.52362496 -35.8007513 40.52362496 -38 42 C-43.52941176 42.23529412 -43.52941176 42.23529412 -46 41 C-45.67 40.34 -45.34 39.68 -45 39 C-42.03 39 -39.06 39 -36 39 C-35.34 37.68 -34.68 36.36 -34 35 C-32.75396392 33.60515525 -31.45183871 32.25944108 -30.11328125 30.953125 C-29.33919922 30.19 -28.56511719 29.426875 -27.76757812 28.640625 C-26.95740234 27.85171875 -26.14722656 27.0628125 -25.3125 26.25 C-20.19021006 21.24042549 -15.2100375 16.21156211 -10.54321289 10.77246094 C-8.48494061 8.40842728 -6.29542631 6.1985736 -4.0625 4 C-3.29035156 3.236875 -2.51820313 2.47375 -1.72265625 1.6875 C-1.15417969 1.130625 -0.58570313 0.57375 0 0 Z " fill="#F9F2E0" transform="translate(193,111)"/>
<path d="M0 0 C0.33 0 0.66 0 1 0 C1 19.47 1 38.94 1 59 C-0.64350079 55.71299843 -1.41321669 53.52069985 -2 50 C-2.99 49.67 -3.98 49.34 -5 49 C-5 49.66 -5 50.32 -5 51 C-5.66 50.67 -6.32 50.34 -7 50 C-6.67 49.01 -6.34 48.02 -6 47 C-9.96 47 -13.92 47 -18 47 C-18 46.67 -18 46.34 -18 46 C-12.555 45.505 -12.555 45.505 -7 45 C-6.81824219 44.08476562 -6.63648438 43.16953125 -6.44921875 42.2265625 C-6.19785156 41.03804688 -5.94648438 39.84953125 -5.6875 38.625 C-5.44386719 37.44164062 -5.20023437 36.25828125 -4.94921875 35.0390625 C-4 32 -4 32 -1 30 C-0.48779459 26.89786275 -0.48779459 26.89786275 -0.48828125 23.2421875 C-0.47033005 22.57913605 -0.45237885 21.91608459 -0.43388367 21.23294067 C-0.37967076 19.11369197 -0.34585229 16.99466975 -0.3125 14.875 C-0.27933633 13.43877048 -0.24484755 12.0025709 -0.20898438 10.56640625 C-0.12394036 7.04448871 -0.05718127 3.52249241 0 0 Z " fill="#515049" transform="translate(282,272)"/>
<path d="M0 0 C3.97177365 2.47132583 4.84033405 3.36133621 6 8 C-0.27 8 -6.54 8 -13 8 C-11.81927711 3.27710843 -11.81927711 3.27710843 -9 1 C-5.66660588 -0.11113137 -3.49519344 -0.34951934 0 0 Z " fill="#3F403B" transform="translate(258,296)"/>
<path d="M0 0 C3.96 0 7.92 0 12 0 C12.66 2.31 13.32 4.62 14 7 C13 8 13 8 11.109375 8.0546875 C6.58772639 7.71032353 4.5278436 7.44166505 0.9375 4.4375 C0.298125 3.633125 -0.34125 2.82875 -1 2 C-0.67 1.34 -0.34 0.68 0 0 Z " fill="#3A3935" transform="translate(246,315)"/>
<path d="M0 0 C0 3.92165239 -1.25271215 4.73024249 -3.875 7.5625 C-4.59429687 8.34753906 -5.31359375 9.13257812 -6.0546875 9.94140625 C-7.35054115 11.31272126 -8.66588202 12.66588202 -10 14 C-10.825 15.010625 -11.65 16.02125 -12.5 17.0625 C-15.88441622 21.04710826 -19.707613 24.44452666 -23.6328125 27.88671875 C-25.83729325 29.8547453 -27.93246967 31.88959461 -30 34 C-30.66 33.67 -31.32 33.34 -32 33 C-31.32795532 32.33581055 -31.32795532 32.33581055 -30.64233398 31.65820312 C-28.57129904 29.60823317 -26.50439303 27.55414567 -24.4375 25.5 C-23.38079102 24.45585937 -23.38079102 24.45585937 -22.30273438 23.390625 C-18.21952477 19.32623203 -14.33325197 15.16395499 -10.57397461 10.79882812 C-8.50127607 8.4300298 -6.30482407 6.20782677 -4.0625 4 C-3.29035156 3.236875 -2.51820313 2.47375 -1.72265625 1.6875 C-1.15417969 1.130625 -0.58570313 0.57375 0 0 Z " fill="#E4F5E3" transform="translate(193,111)"/>
<path d="M0 0 C0.33 0 0.66 0 1 0 C1.05945801 0.91495239 1.05945801 0.91495239 1.12011719 1.84838867 C1.31144219 4.62973631 1.53044065 7.40824454 1.75 10.1875 C1.8428125 11.62706055 1.8428125 11.62706055 1.9375 13.09570312 C2.39108343 18.55760359 2.83278842 22.04453698 7 26 C5.07423885 28.43929746 3.19909405 30.80090595 1 33 C-0.12520495 21.98906587 -0.09920291 11.05561292 0 0 Z " fill="#454440" transform="translate(225,288)"/>
<path d="M0 0 C0.66 0.33 1.32 0.66 2 1 C2 1.66 2 2.32 2 3 C2.66 3 3.32 3 4 3 C4.33 2.34 4.66 1.68 5 1 C5.33 1.33 5.66 1.66 6 2 C8.18639453 2.07258946 10.37500389 2.08373783 12.5625 2.0625 C13.76003906 2.05347656 14.95757812 2.04445312 16.19140625 2.03515625 C17.58166016 2.01775391 17.58166016 2.01775391 19 2 C19 2.66 19 3.32 19 4 C19.66 4.33 20.32 4.66 21 5 C17.70849875 5.08685287 14.4172904 5.14033895 11.125 5.1875 C10.18785156 5.21263672 9.25070313 5.23777344 8.28515625 5.26367188 C7.38925781 5.27333984 6.49335938 5.28300781 5.5703125 5.29296875 C4.74289551 5.3086792 3.91547852 5.32438965 3.06298828 5.34057617 C2.38220215 5.22818604 1.70141602 5.1157959 1 5 C0.34 4.01 -0.32 3.02 -1 2 C-0.67 1.34 -0.34 0.68 0 0 Z " fill="#535149" transform="translate(177,212)"/>
<path d="M0 0 C10.23 0 20.46 0 31 0 C30.67 1.32 30.34 2.64 30 4 C27.03 4 24.06 4 21 4 C21 3.67 21 3.34 21 3 C22.98 3 24.96 3 27 3 C27 2.34 27 1.68 27 1 C13.635 1.495 13.635 1.495 0 2 C0 1.34 0 0.68 0 0 Z " fill="#26231D" transform="translate(245,314)"/>
<path d="M0 0 C0.99 0.66 1.98 1.32 3 2 C2.625 3.9375 2.625 3.9375 2 6 C1.01 6.495 1.01 6.495 0 7 C0.33 7.66 0.66 8.32 1 9 C0.0625 11.125 0.0625 11.125 -1 13 C-2.65 11.68 -4.3 10.36 -6 9 C-5.34 9 -4.68 9 -4 9 C-4 8.01 -4 7.02 -4 6 C-3.34 5.67 -2.68 5.34 -2 5 C-2 4.01 -2 3.02 -2 2 C-1.34 1.34 -0.68 0.68 0 0 Z " fill="#383836" transform="translate(378,63)"/>
<path d="M0 0 C0.33 1.65 0.66 3.3 1 5 C-0.98 5.99 -0.98 5.99 -3 7 C-3.33 6.67 -3.66 6.34 -4 6 C-6.2109885 6.42793326 -7.98119242 6.99059621 -10 8 C-12.01927511 7.39421747 -14.02253397 6.73080266 -16 6 C-16 5.67 -16 5.34 -16 5 C-14.98679688 4.83564453 -14.98679688 4.83564453 -13.953125 4.66796875 C-12.61507812 4.43013672 -12.61507812 4.43013672 -11.25 4.1875 C-10.36828125 4.03667969 -9.4865625 3.88585937 -8.578125 3.73046875 C-5.32666201 2.8092209 -3.28483237 0 0 0 Z " fill="#3F3D39" transform="translate(213,328)"/>
<path d="M0 0 C0.99 0.33 1.98 0.66 3 1 C3 1.66 3 2.32 3 3 C5.56893838 4.28446919 7.76576337 4.32977144 10.625 4.5625 C12.12933594 4.68818359 12.12933594 4.68818359 13.6640625 4.81640625 C14.43492187 4.87699219 15.20578125 4.93757813 16 5 C16 5.33 16 5.66 16 6 C9.73 6 3.46 6 -3 6 C-2 2 -2 2 0 0 Z " fill="#26251F" transform="translate(248,298)"/>
<path d="M0 0 C1.32 0.33 2.64 0.66 4 1 C1.36 3.97 -1.28 6.94 -4 10 C-5.65 8.35 -7.3 6.7 -9 5 C-6.07175348 4.02391783 -4.04386724 3.91773332 -1 4 C-0.67 2.68 -0.34 1.36 0 0 Z " fill="#F2F5E6" transform="translate(156,121)"/>
<path d="M0 0 C1.00007341 3.1113395 0.87515553 4.88833588 0 8 C0 9.32 0 10.64 0 12 C0.66 12 1.32 12 2 12 C1.67 12.99 1.34 13.98 1 15 C-2.10366328 12.57526306 -2.9393296 11.48536323 -3.4375 7.5 C-2.99243527 3.93948214 -2.44140066 2.54312569 0 0 Z " fill="#64AA8F" transform="translate(126,115)"/>
<path d="M0 0 C0.66 0.33 1.32 0.66 2 1 C2 1.66 2 2.32 2 3 C3.32 3.33 4.64 3.66 6 4 C6 4.66 6 5.32 6 6 C5.34 6 4.68 6 4 6 C4 6.66 4 7.32 4 8 C2.68 8 1.36 8 0 8 C-1.125 5.6875 -1.125 5.6875 -2 3 C-1.34 2.01 -0.68 1.02 0 0 Z " fill="#393835" transform="translate(394,89)"/>
<path d="M0 0 C4.34057339 6.51086008 3.11335361 15.44309285 3 23 C-0.40845782 17.88731328 -0.11919012 12.63415271 -0.0625 6.625 C-0.05347656 5.37976563 -0.04445313 4.13453125 -0.03515625 2.8515625 C-0.02355469 1.91054687 -0.01195312 0.96953125 0 0 Z " fill="#23221C" transform="translate(409,104)"/>
<path d="M0 0 C2.3125 0.1875 2.3125 0.1875 5 1 C6.8125 3.5625 6.8125 3.5625 8 6 C5.69 6 3.38 6 1 6 C0.67 4.02 0.34 2.04 0 0 Z " fill="#383732" transform="translate(256,297)"/>
<path d="M0 0 C0.33 1.32 0.66 2.64 1 4 C0.34 4 -0.32 4 -1 4 C-0.67 5.98 -0.34 7.96 0 10 C-0.99 10.66 -1.98 11.32 -3 12 C-3.33 8.7 -3.66 5.4 -4 2 C-2.68 1.34 -1.36 0.68 0 0 Z " fill="#5A5851" transform="translate(284,194)"/>
<path d="M0 0 C0.99 0.33 1.98 0.66 3 1 C1.02 1.99 1.02 1.99 -1 3 C-0.34 5.97 0.32 8.94 1 12 C-0.32 11.34 -1.64 10.68 -3 10 C-3.29296875 3.9453125 -3.29296875 3.9453125 -3 2 C-2.01 1.34 -1.02 0.68 0 0 Z " fill="#BACBC5" transform="translate(222,91)"/>
<path d="M0 0 C0.33 1.32 0.66 2.64 1 4 C0.01 4 -0.98 4 -2 4 C-2 4.66 -2 5.32 -2 6 C-5.45662331 8.30441554 -6.94857881 8.25860135 -11 8 C-11.66 7.67 -12.32 7.34 -13 7 C-12.67 6.34 -12.34 5.68 -12 5 C-9.03 5 -6.06 5 -3 5 C-2.34 3.68 -1.68 2.36 -1 1 C-0.67 0.67 -0.34 0.34 0 0 Z " fill="#E1F5E2" transform="translate(160,145)"/>
<path d="M0 0 C0.66 0.66 1.32 1.32 2 2 C4.06874034 2.6425235 4.06874034 2.6425235 6 3 C6 3.66 6 4.32 6 5 C2.37 5 -1.26 5 -5 5 C-5 4.34 -5 3.68 -5 3 C-3.35 3 -1.7 3 0 3 C0 2.01 0 1.02 0 0 Z " fill="#4E4D48" transform="translate(190,282)"/>
<path d="M0 0 C0.99 0.33 1.98 0.66 3 1 C2.195625 1.680625 1.39125 2.36125 0.5625 3.0625 C-2.42288711 6.48477302 -2.73781251 8.5428126 -3 13 C-3.33 13 -3.66 13 -4 13 C-4.652775 9.9752604 -5.1331657 7.10009754 -5 4 C-2.75 1.375 -2.75 1.375 0 0 Z " fill="#EDF8E7" transform="translate(126,113)"/>
<path d="M0 0 C0 0.99 0 1.98 0 3 C-0.66 3 -1.32 3 -2 3 C-2 3.99 -2 4.98 -2 6 C-5.33333333 9 -5.33333333 9 -8 9 C-6.4169423 4.7257442 -3.49431596 2.73468206 0 0 Z " fill="#E7E2D7" transform="translate(243,288)"/>
<path d="M0 0 C1.45792884 -0.05399736 2.91642712 -0.09279177 4.375 -0.125 C5.18710938 -0.14820313 5.99921875 -0.17140625 6.8359375 -0.1953125 C9 0 9 0 11 2 C10 3 10 3 7.71484375 3.09765625 C6.34005859 3.08025391 6.34005859 3.08025391 4.9375 3.0625 C4.01839844 3.05347656 3.09929687 3.04445313 2.15234375 3.03515625 C1.44207031 3.02355469 0.73179687 3.01195312 0 3 C0 2.01 0 1.02 0 0 Z " fill="#444540" transform="translate(168,268)"/>
<path d="M0 0 C1.32 0.66 2.64 1.32 4 2 C4 2.99 4 3.98 4 5 C4.99 5 5.98 5 7 5 C6.67 5.99 6.34 6.98 6 8 C3.69 6.02 1.38 4.04 -1 2 C-0.67 1.34 -0.34 0.68 0 0 Z " fill="#D9EBD8" transform="translate(141,119)"/>
<path d="M0 0 C1.4800841 0.11362262 2.95910074 0.24122908 4.4375 0.375 C5.26121094 0.44460938 6.08492187 0.51421875 6.93359375 0.5859375 C7.95646484 0.79089844 7.95646484 0.79089844 9 1 C9.33 1.66 9.66 2.32 10 3 C6.7 3 3.4 3 0 3 C0 2.01 0 1.02 0 0 Z " fill="#55534E" transform="translate(214,284)"/>
<path d="M0 0 C0 0.33 0 0.66 0 1 C-0.969375 1.28875 -1.93875 1.5775 -2.9375 1.875 C-6.10664203 2.64214682 -6.10664203 2.64214682 -7 5 C-8.32 4.34 -9.64 3.68 -11 3 C-7.48550811 -0.37391222 -4.73940561 -0.27342725 0 0 Z " fill="#49473F" transform="translate(278,156)"/>
<path d="M0 0 C3 0 3 0 5 1 C4.67 2.65 4.34 4.3 4 6 C2.68 5.67 1.36 5.34 0 5 C0 3.35 0 1.7 0 0 Z " fill="#3D3C37" transform="translate(154,293)"/>
<path d="M0 0 C2.475 0.99 2.475 0.99 5 2 C4.525625 2.391875 4.05125 2.78375 3.5625 3.1875 C1.64820367 5.40808374 1.38733012 7.13375709 1 10 C0.67 10 0.34 10 0 10 C0 6.7 0 3.4 0 0 Z " fill="#FAF6EA" transform="translate(371,196)"/>
<path d="M0 0 C2.97 0 5.94 0 9 0 C9.33 0.99 9.66 1.98 10 3 C4.58461538 3.36923077 4.58461538 3.36923077 1.625 1.5 C1.08875 1.005 0.5525 0.51 0 0 Z " fill="#51514A" transform="translate(215,332)"/>
<path d="M0 0 C2.31 1.98 4.62 3.96 7 6 C6.34 6.66 5.68 7.32 5 8 C1.91763635 5.21592961 1.04793663 4.19174654 0 0 Z " fill="#D4EDD9" transform="translate(137,140)"/>
<path d="M0 0 C0.33 0.99 0.66 1.98 1 3 C0 4 0 4 -2.06640625 4.09765625 C-2.89011719 4.08605469 -3.71382813 4.07445312 -4.5625 4.0625 C-5.38878906 4.05347656 -6.21507812 4.04445313 -7.06640625 4.03515625 C-7.70449219 4.02355469 -8.34257812 4.01195312 -9 4 C-9 3.67 -9 3.34 -9 3 C-7.02 3 -5.04 3 -3 3 C-3 2.34 -3 1.68 -3 1 C-2.01 0.67 -1.02 0.34 0 0 Z " fill="#2C2A24" transform="translate(275,314)"/>
<path d="M0 0 C2.475 0.99 2.475 0.99 5 2 C3.35 3.65 1.7 5.3 0 7 C-1.04449911 3.86650268 -0.93423645 3.01031744 0 0 Z " fill="#3D3D38" transform="translate(168,309)"/>
<path d="M0 0 C-0.57344937 2.86724686 -0.8614515 3.8614515 -3 6 C-3.66 6 -4.32 6 -5 6 C-4.625 3.5625 -4.625 3.5625 -4 1 C-2 0 -2 0 0 0 Z " fill="#EAE5D7" transform="translate(166,281)"/>
<path d="M0 0 C0.66 0.33 1.32 0.66 2 1 C-3.14285714 6.57142857 -3.14285714 6.57142857 -7 7 C-4.66666667 4.66666667 -2.33333333 2.33333333 0 0 Z " fill="#68A790" transform="translate(157,125)"/>
<path d="M0 0 C5.53846154 -0.36923077 5.53846154 -0.36923077 7.875 1.5 C8.24625 1.995 8.6175 2.49 9 3 C8.01 3.33 7.02 3.66 6 4 C5.67 3.01 5.34 2.02 5 1 C3.68 1.33 2.36 1.66 1 2 C0.67 1.34 0.34 0.68 0 0 Z " fill="#77B69C" transform="translate(128,114)"/>
<path d="" fill="#FFFFFF" transform="translate(0,0)"/>
<path d="" fill="#FFFFFF" transform="translate(0,0)"/>
<path d="" fill="#FFFFFF" transform="translate(0,0)"/>
<path d="" fill="#FFFFFF" transform="translate(0,0)"/>
<path d="" fill="#FFFFFF" transform="translate(0,0)"/>
<path d="" fill="#FFFFFF" transform="translate(0,0)"/>
<path d="" fill="#FFFFFF" transform="translate(0,0)"/>
<path d="" fill="#FFFFFF" transform="translate(0,0)"/>
<path d="" fill="#FFFFFF" transform="translate(0,0)"/>
<path d="" fill="#FFFFFF" transform="translate(0,0)"/>
<path d="" fill="#FFFFFF" transform="translate(0,0)"/>
<path d="" fill="#FFFFFF" transform="translate(0,0)"/>
<path d="" fill="#FFFFFF" transform="translate(0,0)"/>
<path d="" fill="#FFFFFF" transform="translate(0,0)"/>
<path d="" fill="#FFFFFF" transform="translate(0,0)"/>
<path d="" fill="#FFFFFF" transform="translate(0,0)"/>
<path d="" fill="#FFFFFF" transform="translate(0,0)"/>
<path d="" fill="#FFFFFF" transform="translate(0,0)"/>
<path d="" fill="#FFFFFF" transform="translate(0,0)"/>
<path d="" fill="#FFFFFF" transform="translate(0,0)"/>
<path d="" fill="#FFFFFF" transform="translate(0,0)"/>
<path d="" fill="#FFFFFF" transform="translate(0,0)"/>
<path d="" fill="#FFFFFF" transform="translate(0,0)"/>
<path d="" fill="#FFFFFF" transform="translate(0,0)"/>
<path d="" fill="#FFFFFF" transform="translate(0,0)"/>
<path d="" fill="#FFFFFF" transform="translate(0,0)"/>
<path d="" fill="#FFFFFF" transform="translate(0,0)"/>
<path d="" fill="#FFFFFF" transform="translate(0,0)"/>
<path d="" fill="#FFFFFF" transform="translate(0,0)"/>
<path d="" fill="#FFFFFF" transform="translate(0,0)"/>
<path d="" fill="#FFFFFF" transform="translate(0,0)"/>
<path d="" fill="#FFFFFF" transform="translate(0,0)"/>
<path d="" fill="#FFFFFF" transform="translate(0,0)"/>
<path d="" fill="#FFFFFF" transform="translate(0,0)"/>
<path d="" fill="#FF00FF" transform="translate(0,0)"/>
<path d="" fill="#FFFFFF" transform="translate(0,0)"/>
<path d="" fill="#FFFFFF" transform="translate(0,0)"/>
<path d="" fill="#FFFFFF" transform="translate(0,0)"/>
<path d="" fill="#FFFFFF" transform="translate(0,0)"/>
<path d="" fill="#FFFFFF" transform="translate(0,0)"/>
<path d="" fill="#FFFFFF" transform="translate(0,0)"/>
<path d="" fill="#FFFFFF" transform="translate(0,0)"/>
<path d="" fill="#FFFFFF" transform="translate(0,0)"/>
<path d="" fill="#FFFFFF" transform="translate(0,0)"/>
<path d="" fill="#FFFFFF" transform="translate(0,0)"/>
<path d="" fill="#FFFFFF" transform="translate(0,0)"/>
</svg>
